HIERARCHY
ROOT Hips
{
  OFFSET 0.0000 0.0000 0.0000
  CHANNELS 6 Xposition Yposition Zposition Zrotation Xrotation Yrotation
  JOINT LeftHip
  {
    OFFSET 5.5000 0.0000 -0.0000
    CHANNELS 3 Zrotation Xrotation Yrotation
    JOINT LeftKnee
    {
      OFFSET 0.0000 -17.5000 0.0000
      CHANNELS 3 Zrotation Xrotation Yrotation
      JOINT LeftAnkle
      {
        OFFSET -0.0000 -17.0000 -0.0000
        CHANNELS 3 Zrotation Xrotation Yrotation
        End Site
        {
            OFFSET 0.0000 -4.7000 -2.0000
        }
      }
    }
  }
  JOINT RightHip
  {
    OFFSET -5.5000 0.0000 0.0000
    CHANNELS 3 Zrotation Xrotation Yrotation
    JOINT RightKnee
    {
      OFFSET 0.0000 -17.5000 0.0000
      CHANNELS 3 Zrotation Xrotation Yrotation
      JOINT RightAnkle
      {
        OFFSET -0.0000 -17.0000 0.0000
        CHANNELS 3 Zrotation Xrotation Yrotation
        End Site
        {
            OFFSET 0.0000 -4.7000 -2.0000
        }
      }
    }
  }
  JOINT Chest
  {
    OFFSET 0.0000 3.0000 -1.0000
    CHANNELS 3 Zrotation Xrotation Yrotation
    JOINT LeftCollar
    {
      OFFSET 0.0000 18.0000 1.0000
      CHANNELS 3 Zrotation Xrotation Yrotation
      JOINT LeftShoulder
      {
        OFFSET 6.5000 -0.0000 0.0000
        CHANNELS 3 Zrotation Xrotation Yrotation
        JOINT LeftElbow
        {
          OFFSET 0.0000 -11.0000 -0.0000
          CHANNELS 3 Zrotation Xrotation Yrotation
          JOINT LeftWrist
          {
            OFFSET -0.0000 -10.5000 0.0000
            CHANNELS 3 Zrotation Xrotation Yrotation
            End Site
            {
                OFFSET 0.0000 -6.0000 0.0000
            }
          }
        }
      }
    }
    JOINT RightCollar
    {
      OFFSET 0.0000 18.0000 1.0000
      CHANNELS 3 Zrotation Xrotation Yrotation
      JOINT RightShoulder
      {
        OFFSET -6.5000 0.0000 -0.0000
        CHANNELS 3 Zrotation Xrotation Yrotation
        JOINT RightElbow
        {
          OFFSET -0.0000 -11.0000 0.0000
          CHANNELS 3 Zrotation Xrotation Yrotation
          JOINT RightWrist
          {
            OFFSET 0.0000 -10.5000 0.0000
            CHANNELS 3 Zrotation Xrotation Yrotation
            End Site
            {
                OFFSET 0.0000 -6.0000 -0.0000
            }
          }
        }
      }
    }
    JOINT Neck
    {
      OFFSET 0.0000 18.0000 1.0000
      CHANNELS 3 Zrotation Xrotation Yrotation
      JOINT Head
      {
        OFFSET 0.0000 3.0000 0.0000
        CHANNELS 3 Zrotation Xrotation Yrotation
        End Site
        {
            OFFSET 0.0000 7.0000 -0.0000
        }
      }
    }
  }
}
MOTION
Frames:	11
Frame Time:	0.033333
8.5044 9.3560 -4.9056 -87.59 2.31 3.67 -0.97 -5.82 -8.22 0.00 31.28 1.08 3.67 -7.64 1.57 -14.76 -5.52 -33.02 -0.00 73.00 -4.70 40.64 23.55 -34.02 -0.65 10.05 12.72 0.00 0.00 0.00 153.13 -14.03 86.09 -180.00 -51.37 -166.73 60.97 -29.39 -33.83 0.00 0.00 0.00 47.22 -48.26 118.00 -0.00 -68.15 -3.93 -7.11 -38.46 52.45 0.00 0.00 0.00 17.07 -6.55 16.97 
8.5049 9.3558 -4.9062 -87.59 2.31 3.67 -0.97 -5.82 -8.22 -0.00 31.28 1.08 3.67 -7.64 1.57 -14.75 -5.52 -33.02 -0.00 73.00 -4.70 40.61 23.53 -33.98 -0.64 10.05 12.72 0.00 0.00 0.00 153.06 -14.10 86.05 -180.00 -51.35 -166.64 60.82 -29.55 -33.87 0.00 0.00 0.00 47.20 -48.24 118.32 0.00 -68.32 -4.13 -6.85 -38.22 52.76 0.00 0.00 0.00 16.95 -6.31 16.92 
8.5052 9.3556 -4.9066 -87.59 2.31 3.67 -0.97 -5.82 -8.22 0.00 31.28 1.08 3.67 -7.63 1.58 -14.75 -5.52 -33.03 -0.00 73.00 -4.70 40.57 23.51 -33.95 -0.63 10.05 12.72 0.00 0.00 0.00 153.00 -14.17 86.01 180.00 -51.33 -166.57 60.65 -29.69 -33.97 0.00 0.00 0.00 47.16 -48.22 118.53 -0.00 -68.76 -4.34 -6.59 -37.85 53.03 0.00 0.00 0.00 16.79 -5.93 16.85 
8.5055 9.3554 -4.9071 -87.59 2.31 3.67 -0.97 -5.82 -8.23 0.00 31.28 1.08 3.67 -7.63 1.59 -14.74 -5.52 -33.03 0.00 73.00 -4.70 40.53 23.49 -33.91 -0.63 10.05 12.71 0.00 0.00 0.00 152.96 -14.23 85.98 -180.00 -51.31 -166.51 60.49 -29.77 -34.11 0.00 0.00 0.00 47.21 -48.18 118.60 -0.00 -69.50 -4.56 -6.30 -37.27 53.26 0.00 0.00 0.00 16.69 -5.67 16.81 
8.5060 9.3553 -4.9077 -87.59 2.31 3.67 -0.97 -5.82 -8.23 0.00 31.28 1.08 3.67 -7.63 1.59 -14.74 -5.51 -33.02 -0.00 73.00 -4.70 40.50 23.48 -33.87 -0.62 10.05 12.71 0.00 0.00 0.00 152.94 -14.28 85.94 -180.00 -51.28 -166.47 60.36 -29.80 -34.26 0.00 0.00 0.00 47.41 -48.14 118.49 -0.00 -70.45 -4.78 -5.92 -36.50 53.47 0.00 0.00 0.00 16.68 -5.56 16.78 
8.5063 9.3551 -4.9081 -87.59 2.31 3.67 -0.97 -5.82 -8.23 -0.00 31.28 1.08 3.67 -7.63 1.59 -14.74 -5.51 -33.02 -0.00 73.01 -4.70 40.46 23.48 -33.84 -0.63 10.05 12.71 0.00 0.00 0.00 152.95 -14.32 85.91 180.00 -51.26 -166.46 60.26 -29.77 -34.40 0.00 0.00 0.00 47.66 -48.11 118.21 -0.00 -71.40 -4.97 -5.53 -35.73 53.64 0.00 0.00 0.00 16.75 -5.63 16.75 
8.5068 9.3551 -4.9086 -87.59 2.31 3.66 -0.97 -5.82 -8.23 -0.00 31.28 1.08 3.67 -7.63 1.60 -14.74 -5.51 -33.02 -0.00 73.00 -4.70 40.43 23.49 -33.81 -0.63 10.05 12.70 0.00 0.00 0.00 152.97 -14.35 85.89 -180.00 -51.23 -166.48 60.20 -29.67 -34.50 0.00 0.00 0.00 47.80 -48.18 117.78 -0.00 -72.17 -5.08 -5.34 -35.23 53.57 0.00 0.00 0.00 16.84 -5.84 16.73 
8.5072 9.3550 -4.9091 -87.59 2.31 3.66 -0.97 -5.82 -8.24 0.00 31.28 1.08 3.67 -7.63 1.60 -14.74 -5.52 -33.02 -0.00 73.00 -4.70 40.40 23.51 -33.78 -0.64 10.04 12.70 0.00 0.00 0.00 153.00 -14.37 85.90 -180.00 -51.21 -166.52 60.18 -29.54 -34.58 0.00 0.00 0.00 47.99 -48.28 117.24 -0.00 -72.99 -5.15 -5.25 -34.73 53.35 0.00 0.00 0.00 16.80 -5.69 16.69 
8.5075 9.3548 -4.9096 -87.59 2.31 3.66 -0.97 -5.82 -8.24 -0.00 31.28 1.08 3.67 -7.63 1.60 -14.73 -5.51 -33.02 0.00 72.99 -4.70 40.38 23.54 -33.77 -0.64 10.04 12.70 0.00 0.00 0.00 153.04 -14.38 85.91 -180.00 -51.19 -166.56 60.18 -29.38 -34.63 0.00 0.00 0.00 48.32 -48.39 116.67 -0.00 -73.85 -5.19 -5.19 -34.14 53.07 0.00 0.00 0.00 16.74 -5.46 16.66 
8.5079 9.3546 -4.9100 -87.59 2.31 3.66 -0.97 -5.82 -8.24 0.00 31.28 1.08 3.67 -7.63 1.61 -14.73 -5.50 -33.02 0.00 72.98 -4.70 40.36 23.57 -33.74 -0.65 10.04 12.70 0.00 0.00 0.00 153.08 -14.40 85.94 -180.00 -51.17 -166.59 60.19 -29.23 -34.70 0.00 0.00 0.00 48.76 -48.53 116.14 -0.00 -74.63 -5.17 -5.17 -33.56 52.72 0.00 0.00 0.00 16.69 -5.30 16.62 
8.5083 9.3545 -4.9106 -87.59 2.31 3.66 -0.97 -5.82 -8.24 -0.00 31.28 1.08 3.67 -7.63 1.61 -14.72 -5.50 -33.02 0.00 72.98 -4.70 40.33 23.59 -33.72 -0.65 10.04 12.70 0.00 0.00 0.00 153.12 -14.43 85.95 -180.00 -51.17 -166.58 60.21 -29.11 -34.80 0.00 0.00 0.00 49.27 -48.68 115.71 -0.00 -75.33 -5.10 -5.18 -33.00 52.34 0.00 0.00 0.00 16.69 -5.27 16.61 
